<?xml version="1.0" encoding="UTF-8" standalone="no"?>
<!-- Created with Inkscape (http://www.inkscape.org/) -->

<svg
   version="1.1"
   id="svg2"
   xml:space="preserve"
   width="5218.7803"
   height="4320.8774"
   viewBox="0 0 5218.7803 4320.8774"
   sodipodi:docname="kif500.svg"
   inkscape:version="1.1.2 (0a00cf5339, 2022-02-04, custom)"
   xmlns:inkscape="http://www.inkscape.org/namespaces/inkscape"
   xmlns:sodipodi="http://sodipodi.sourceforge.net/DTD/sodipodi-0.dtd"
   xmlns="http://www.w3.org/2000/svg"
   xmlns:svg="http://www.w3.org/2000/svg"><defs
     id="defs6" /><sodipodi:namedview
     id="namedview4"
     pagecolor="#ffffff"
     bordercolor="#666666"
     borderopacity="1.0"
     inkscape:pageshadow="2"
     inkscape:pageopacity="0.0"
     inkscape:pagecheckerboard="0"
     showgrid="false"
     inkscape:zoom="0.15102715"
     inkscape:cx="2605.4918"
     inkscape:cy="2161.8629"
     inkscape:window-width="1920"
     inkscape:window-height="1154"
     inkscape:window-x="0"
     inkscape:window-y="22"
     inkscape:window-maximized="1"
     inkscape:current-layer="g8"
     fit-margin-top="0"
     fit-margin-left="0"
     fit-margin-right="0"
     fit-margin-bottom="0" /><g
     id="g8"
     inkscape:groupmode="layer"
     inkscape:label="100026A400087C600006F900E9E78DE5EDCEF589"
     transform="matrix(1.3333333,0,0,-1.3333333,-288.14133,4540.7999)"><path
       d="M 4087.9,1048.75 H 258.432 V 286.724 c -1.709,-60.366 31.237,-85.286 94.241,-79.463 H 3984.04 c 68.11,-6.161 105.07,18.042 103.86,79.463 z m -1767.49,-749.555 143.01,687.686 233.23,-482.806 241.59,482.806 128.5,-687.686 H 2961.57 L 2896,714.301 2694.89,299.195 2499.51,714.746 2426.46,299.195 Z M 1381.33,986.881 V 572.666 c 0,-59.089 9.53,-102.292 28.6,-129.609 28.46,-39.492 68.5,-59.238 120.14,-59.238 51.92,0 92.12,19.746 120.57,59.238 19.07,26.426 28.61,69.629 28.61,129.609 v 414.215 h 102.53 v -442.72 c 0,-72.451 -22.3,-132.133 -66.89,-179.048 -50.17,-52.26 -111.77,-78.389 -184.82,-78.389 -73.05,0 -134.51,26.129 -184.39,78.389 -44.59,46.915 -66.88,106.597 -66.88,179.048 v 442.72 z m 665.8,0 V 396.736 h 199.79 V 299.195 H 1944.6 v 687.686 z"
       style="fill:#000000;fill-opacity:1;fill-rule:nonzero;stroke:none"
       id="path10" /><path
       d="m 3224.73,1160.48 c 0,17.58 6.36,32.81 19.08,45.68 12.71,12.87 27.91,19.3 45.59,19.3 17.68,0 32.88,-6.43 45.6,-19.3 12.71,-12.87 19.07,-28.26 19.07,-46.15 0,-18.21 -6.36,-33.75 -19.07,-46.62 -12.41,-12.56 -27.61,-18.84 -45.6,-18.84 -18.3,0 -33.65,6.28 -46.06,18.84 -12.41,12.56 -18.61,28.25 -18.61,47.09 z m -757.45,571.68 h -221.47 l -35.36,-120.55 c 5.28,0.63 10.32,1.1 15.13,1.41 4.8,0.32 9.22,0.47 13.26,0.47 69.79,0 127.01,-23.86 171.68,-71.58 44.97,-47.4 67.46,-108.15 67.46,-182.24 0,-76.6 -25.43,-139.7 -76.3,-189.3 -50.87,-49.6 -114.92,-74.4 -192.16,-74.4 -95.22,0 -170.28,45.2 -225.18,135.62 l 81.88,70.16 c 22.65,-38.93 45.44,-66.4 68.4,-82.41 22.95,-15.69 51.02,-23.54 84.21,-23.54 43.42,0 79.87,15.38 109.34,46.15 29.46,31.7 44.2,70.16 44.2,115.37 0,46.46 -14.58,84.45 -43.74,113.96 -29.16,30.45 -65.6,45.68 -109.34,45.68 -48.69,0 -90.72,-21.51 -126.08,-64.52 h -35.83 l 113.06,382.38 h 296.84 z m 127.48,-256.17 c 0,115.84 26.68,208.3 80.03,277.36 47.76,62.48 105.61,93.71 173.54,93.71 67.93,0 125.78,-31.23 173.54,-93.71 53.35,-69.06 80.03,-163.09 80.03,-282.07 0,-118.67 -26.68,-212.54 -80.03,-281.6 -47.76,-62.48 -105.46,-93.71 -173.07,-93.71 -67.62,0 -125.62,31.23 -174.01,93.71 -53.35,69.06 -80.03,164.5 -80.03,286.31 z m 882.14,0 c 0,115.84 26.68,208.3 80.03,277.36 47.76,62.48 105.61,93.71 173.54,93.71 67.93,0 125.78,-31.23 173.54,-93.71 53.35,-69.06 80.03,-163.09 80.03,-282.07 0,-118.67 -26.68,-212.54 -80.03,-281.6 -47.76,-62.48 -105.46,-93.71 -173.07,-93.71 -67.62,0 -125.62,31.23 -174.01,93.71 -53.35,69.06 -80.03,164.5 -80.03,286.31 z M 1101.27,1834.82 V 1107.74 H 992.859 v 727.08 z m 531.33,-103.13 h -250.31 v -174.71 h 241.47 v -103.13 h -241.47 v -346.11 h -108.41 v 727.08 H 1632.6 Z M 469.903,1544.74 749.526,1834.82 H 894.223 L 569.469,1505.65 896.084,1107.74 H 750.922 l -258.686,323.51 -22.333,-22.6 V 1107.74 H 361.496 v 727.08 h 108.407 z m 2231.407,-69.22 c 0,-80.69 13.8,-147.71 41.41,-201.08 27.6,-52.43 62.81,-78.64 105.61,-78.64 42.5,0 77.7,26.21 105.62,78.64 27.91,52.11 41.87,117.88 41.87,197.31 0,79.43 -13.96,145.35 -41.87,197.78 -27.92,52.11 -63.12,78.17 -105.62,78.17 -42.18,0 -77.23,-26.06 -105.15,-78.17 -27.91,-51.8 -41.87,-116.47 -41.87,-194.01 z m 882.14,0 c 0,-80.69 13.8,-147.71 41.41,-201.08 27.6,-52.43 62.81,-78.64 105.61,-78.64 42.5,0 77.7,26.21 105.62,78.64 27.91,52.11 41.87,117.88 41.87,197.31 0,79.43 -13.96,145.35 -41.87,197.78 -27.92,52.11 -63.12,78.17 -105.62,78.17 -42.18,0 -77.23,-26.06 -105.15,-78.17 -27.91,-51.8 -41.87,-116.47 -41.87,-194.01 z"
       style="fill:#000000;fill-opacity:1;fill-rule:nonzero;stroke:none"
       id="path12" /><path
       d="m 3742.4,2502.63 c 2.98,-3.01 5.54,-6.48 7.53,-10.33 l 25.66,-49.43 c 0.01,-0.02 0.02,-0.03 0.03,-0.05 l 133.35,-257.83 c 3.11,-6.01 4.74,-12.67 4.74,-19.44 0,0 0,-206.39 0,-206.39 l 76.52,29.1 c 12.29,4.67 26.06,3.36 37.25,-3.54 l 82.53,-50.91 c 12.49,-7.71 20.1,-21.34 20.1,-36.02 0,0 0,-1605.566 0,-1605.549 1.15,-49.75 -10,-79.095 -28.77,-97.575 -18.38,-18.104 -47.67,-28.537 -95.03,-29.711 -0.34,-0.008 -0.69,-0.013 -1.04,-0.013 H 338.603 c -0.367,0 -0.734,0.005 -1.1,0.015 -49.869,1.296 -78.443,15.301 -96.011,35.694 -16.994,19.725 -25.386,48.808 -25.386,91.069 0,0.116 0.001,0.231 0.002,0.347 l 13.616,1656.983 c 0.076,9.14 3.109,18.01 8.646,25.29 l 192.14,252.39 c 8.349,10.97 21.515,17.18 35.287,16.66 13.773,-0.53 26.426,-7.73 33.914,-19.3 0,0 150.816,-233.07 150.816,-233.07 0,0 273.689,0 273.689,0 l 87.974,78.84 c 8.36,7.5 19.37,11.36 30.59,10.73 11.22,-0.62 21.73,-5.68 29.22,-14.07 0,0 44.85,-50.25 67.4,-75.5 0,0 90.31,0 90.31,0 v 296.61 c 0,11.23 4.45,21.99 12.39,29.93 0,0 33.13,33.12 33.13,33.12 v 372.96 c 0,13.66 6.59,26.49 17.71,34.43 0,0 41.2,29.44 41.2,29.44 0,0 102.67,583.11 102.67,583.11 3.56,20.25 21.16,35 41.71,34.98 20.56,-0.01 38.12,-14.8 41.66,-35.05 0,0 96.75,-554.91 104.18,-597.56 l 23.86,-78.01 c 1.22,-4.01 1.85,-8.18 1.85,-12.38 0,0 0,-331.92 0,-331.92 l 34.66,-34.66 c 7.94,-7.94 12.4,-18.7 12.4,-29.92 0,0 0,-153.63 0,-153.63 0,0 247.07,0 247.07,0 33.81,48.55 123.82,177.81 123.82,177.81 8.03,11.54 21.27,18.33 35.33,18.13 14.06,-0.2 27.1,-7.37 34.8,-19.14 0,0 115.71,-176.8 115.71,-176.8 0,0 254.88,0 254.88,0 v 68.63 c 0,4.26 0.64,8.5 1.91,12.57 0,0 106.18,341.46 106.18,341.46 5.59,17.98 22.39,30.1 41.21,29.75 18.82,-0.36 35.15,-13.1 40.05,-31.28 l 69.25,-256.47 c 0.14,-0.51 0.27,-1.02 0.39,-1.53 0,0 42.17,-183.06 42.17,-183.06 32.3,-29.4 133.52,-121.52 133.52,-121.52 0,0 174.37,0 174.37,0 0,0 16.23,26.45 16.23,26.45 v 148.08 c 0,2.06 0.15,4.12 0.45,6.15 l 24.63,167.61 c 2.9,19.78 19.25,34.82 39.21,36.08 19.95,1.26 38.06,-11.62 43.42,-30.88 0,0 44.24,-158.85 44.24,-158.85 29.49,-35.39 162.68,-195.22 204.63,-245.55 0,0 38.91,0 38.91,0 v 185.43 c 0,3.01 0.32,6.01 0.95,8.95 l 64.4,297.83 c 0.47,2.18 1.11,4.31 1.92,6.39 l 19.21,49.43 c 0.99,2.54 -16,26.24 -16,40.59 0,21.07 17.11,38.18 38.18,38.18 21.08,0 38.19,-17.11 38.19,-38.18 0,-6.15 0,-9.03 0,0 0,21.07 17.1,38.18 38.18,38.18 21.07,0 38.18,-17.11 38.18,-38.18 0,-10.09 -3.92,-19.27 -10.32,-26.1 z m -523.74,-368.4 219.61,-263.53 c 8.04,-9.65 19.95,-15.22 32.5,-15.22 h 101.06 c 23.37,0 42.31,18.94 42.31,42.31 v 223.23 l 61.84,286.01 c 7.41,-1.77 15.19,-1.51 22.46,0.76 l 2.02,-3.88 c 1.37,-2.65 105.04,-203.09 128.61,-248.65 0,0 0,-257.47 0,-257.47 0,-13.91 6.84,-26.94 18.29,-34.83 11.46,-7.9 26.06,-9.67 39.07,-4.72 l 114.38,43.49 c 0,0 44.66,-27.55 44.66,-27.55 0,0 0,-1582.46 0,-1582.46 0,-0.35 0.01,-0.699 0.02,-1.048 0.26,-10.499 0.01,-19.385 -1.17,-26.883 -0.59,-3.72 -0.41,-6.895 -2.37,-8.824 -2.32,-2.283 -6.05,-2.34 -10.41,-3.133 -7.59,-1.376 -16.47,-1.985 -26.79,-2.253 -0.02,0 -3665.576,0 -3665.576,0 -9.64,0.271 -17.776,1.048 -24.607,2.685 -3.826,0.917 -7.042,1.41 -8.953,3.628 -2.374,2.756 -2.713,6.734 -3.424,11.312 -1.102,7.097 -1.443,15.187 -1.447,24.329 0,0.019 13.499,1642.737 13.499,1642.737 l 147.131,193.28 c 47.672,-73.68 130.604,-201.84 130.604,-201.84 7.798,-12.05 21.174,-19.33 35.529,-19.33 h 312.898 c 10.423,0 20.48,3.85 28.242,10.81 l 68.454,61.34 c 0,0 51.78,-58.01 51.78,-58.01 8.03,-8.99 19.51,-14.14 31.57,-14.14 h 151.57 c 23.38,0 42.32,18.95 42.32,42.32 v 321.4 c 0,0 33.13,33.13 33.13,33.13 7.94,7.94 12.39,18.7 12.39,29.92 v 368.72 c 0,0 37.56,26.84 37.56,26.84 9.02,6.44 15.15,16.17 17.08,27.09 0,0 34.27,194.68 63.78,362.28 29.22,-167.58 63.16,-362.21 63.16,-362.21 0.3,-1.73 0.71,-3.43 1.22,-5.11 l 22.77,-74.48 c 0,0 0,-343.13 0,-343.13 0,-11.22 4.46,-21.98 12.4,-29.92 l 34.66,-34.66 c 0,0 0,-178.42 0,-178.42 0,-23.37 18.95,-42.32 42.32,-42.32 h 311.49 c 13.85,0 26.82,6.77 34.73,18.14 l 100.63,144.51 c 0,0 93.91,-143.5 93.91,-143.5 7.82,-11.95 21.13,-19.15 35.41,-19.15 h 320.08 c 23.37,0 42.32,18.95 42.32,42.32 v 104.52 c 0,0 60.99,196.16 60.99,196.16 0,0 31.06,-115 31.06,-115 0,0 44.96,-195.18 44.96,-195.18 1.93,-8.4 6.38,-16 12.75,-21.8 l 155.43,-141.45 c 7.79,-7.09 17.95,-11.02 28.48,-11.02 h 214.41 c 14.71,0 28.37,7.64 36.07,20.18 l 34.88,56.81 c 4.09,6.66 6.25,14.33 6.25,22.14 z"
       style="fill:#000000;fill-opacity:1;fill-rule:evenodd;stroke:none"
       id="path14" /></g></svg>
